<svg height='100px' width='100px'  fill="#000000" xmlns:x="http://ns.adobe.com/Extensibility/1.0/" xmlns:i="http://ns.adobe.com/AdobeIllustrator/10.0/" xmlns:graph="http://ns.adobe.com/Graphs/1.0/" xmlns="http://www.w3.org/2000/svg" xmlns:xlink="http://www.w3.org/1999/xlink" version="1.1" x="0px" y="0px" viewBox="0 0 100 100" style="enable-background:new 0 0 100 100;" xml:space="preserve"><g><g i:extraneous="self"><g><path d="M5273.1,2400.1v-2c0-2.8-5-4-9.7-4s-9.7,1.3-9.7,4v2c0,1.8,0.7,3.6,2,4.9l5,4.9c0.3,0.3,0.4,0.6,0.4,1v6.4     c0,0.4,0.2,0.7,0.6,0.8l2.9,0.9c0.5,0.1,1-0.2,1-0.8v-7.2c0-0.4,0.2-0.7,0.4-1l5.1-5C5272.4,2403.7,5273.1,2401.9,5273.1,2400.1z      M5263.4,2400c-4.8,0-7.4-1.3-7.5-1.8v0c0.1-0.5,2.7-1.8,7.5-1.8c4.8,0,7.3,1.3,7.5,1.8C5270.7,2398.7,5268.2,2400,5263.4,2400z"></path><path d="M5268.4,2410.3c-0.6,0-1,0.4-1,1c0,0.6,0.4,1,1,1h4.3c0.6,0,1-0.4,1-1c0-0.6-0.4-1-1-1H5268.4z"></path><path d="M5272.7,2413.7h-4.3c-0.6,0-1,0.4-1,1c0,0.6,0.4,1,1,1h4.3c0.6,0,1-0.4,1-1C5273.7,2414.1,5273.3,2413.7,5272.7,2413.7z"></path><path d="M5272.7,2417h-4.3c-0.6,0-1,0.4-1,1c0,0.6,0.4,1,1,1h4.3c0.6,0,1-0.4,1-1C5273.7,2417.5,5273.3,2417,5272.7,2417z"></path></g><g><path d="M95.6,30.7h-7.4v-2.8c0-1.1-0.8-1.9-1.9-1.9h-7.8v-2.7c0-1-0.8-1.9-1.9-1.9H23.4c-1,0-1.9,0.8-1.9,1.9v2.7h-7.8     c-1.1,0-1.9,0.8-1.9,1.9v2.8H4.4c-1.1,0-1.9,0.9-1.9,1.9v34.7c0,1.1,0.8,1.9,1.9,1.9h7.4v2.8c0,1,0.8,1.9,1.9,1.9h7.8v2.6     c0,1,0.8,1.9,1.9,1.9h53.2c1,0,1.9-0.8,1.9-1.9V74h7.8c1.1,0,1.9-0.9,1.9-1.9v-2.8h7.4c1,0,1.9-0.8,1.9-1.9V32.6     C97.5,31.6,96.6,30.7,95.6,30.7z M6.3,65.5v-31h5.5v31H6.3z M15.6,70.2V29.8h5.9v40.4H15.6z M74.7,74.7H25.3V25.3h49.5V74.7z      M84.4,70.2h-5.9V29.8h5.9V70.2z M93.7,65.5h-5.5v-31h5.5V65.5z"></path><path d="M37.9,66.9c3.3,0,5.9-2.6,5.9-5.7V47.6l16.9-2.2v7.7c-0.7-0.3-1.4-0.4-2.2-0.4c-3.3,0-5.9,2.6-5.9,5.7     c0,3.2,2.7,5.7,5.9,5.7c3.3,0,5.9-2.6,5.9-5.7V37c0-0.8-0.3-1.5-0.9-2c-0.6-0.5-1.3-0.7-2.1-0.6l-19.1,2.5C41,37,40,38.1,40,39.4     v16.3c-0.7-0.3-1.4-0.4-2.2-0.4c-3.3,0-5.9,2.6-5.9,5.7C31.9,64.3,34.6,66.9,37.9,66.9z M58.5,60.4c-1.2,0-2.2-0.9-2.2-2     s1-2,2.2-2s2.2,0.9,2.2,2S59.7,60.4,58.5,60.4z M60.6,38.2v3.4l-16.9,2.2v-3.4L60.6,38.2z M37.9,59.1c1.2,0,2.2,0.9,2.2,2     c0,1.1-1,2-2.2,2c-1.2,0-2.2-0.9-2.2-2C35.7,60,36.7,59.1,37.9,59.1z"></path></g></g></g></svg>