<svg height='100px' width='100px'  fill="#000000" xmlns="http://www.w3.org/2000/svg" xmlns:xlink="http://www.w3.org/1999/xlink" version="1.1" x="0px" y="0px" viewBox="0 0 100 100" enable-background="new 0 0 100 100" xml:space="preserve"><g display="none"><g display="inline"><path fill="#000000" stroke="#000000" stroke-width="4" stroke-miterlimit="10" d="M93,29c0,1.65-1.35,3-3,3H10c-1.65,0-3-1.35-3-3    V15c0-1.65,1.35-3,3-3h80c1.65,0,3,1.35,3,3V29z"></path></g><g display="inline"><path fill="#000000" stroke="#000000" stroke-width="4" stroke-miterlimit="10" d="M90,32v53c0,1.65-1.35,3-3,3H13    c-1.65,0-3-1.35-3-3V32"></path></g><g display="inline"><path fill="#000000" stroke="#000000" stroke-width="4" stroke-miterlimit="10" d="M65,43c0,1.65-1.35,3-3,3H38c-1.65,0-3-1.35-3-3    l0,0c0-1.65,1.35-3,3-3h24C63.65,40,65,41.35,65,43L65,43z"></path></g></g><g><path d="M90,10H10c-2.757,0-5,2.243-5,5v14c0,2.045,1.237,3.802,3,4.576V85c0,2.757,2.243,5,5,5h74c2.757,0,5-2.243,5-5V33.576   c1.763-0.774,3-2.531,3-4.576V15C95,12.243,92.757,10,90,10z M9,15c0-0.542,0.458-1,1-1h80c0.542,0,1,0.458,1,1v14   c0,0.542-0.458,1-1,1H10c-0.542,0-1-0.458-1-1V15z M87,86H13c-0.542,0-1-0.458-1-1V34h76v51C88,85.542,87.542,86,87,86z M62,38H38   c-2.757,0-5,2.243-5,5s2.243,5,5,5h24c2.757,0,5-2.243,5-5S64.757,38,62,38z M62,44H38c-0.542,0-1-0.458-1-1s0.458-1,1-1h24   c0.542,0,1,0.458,1,1S62.542,44,62,44z"></path></g></svg>