<svg height='100px' width='100px'  fill="#000000" xmlns:dc="http://purl.org/dc/elements/1.1/" xmlns:cc="http://creativecommons.org/ns#" xmlns:rdf="http://www.w3.org/1999/02/22-rdf-syntax-ns#" xmlns:svg="http://www.w3.org/2000/svg" xmlns="http://www.w3.org/2000/svg" xmlns:sodipodi="http://sodipodi.sourceforge.net/DTD/sodipodi-0.dtd" xmlns:inkscape="http://www.inkscape.org/namespaces/inkscape" version="1.1" x="0px" y="0px" viewBox="0 0 100 100"><g transform="translate(0,-952.36218)"><path style="text-indent:0;text-transform:none;direction:ltr;block-progression:tb;baseline-shift:baseline;color:#000000;enable-background:accumulate;" d="m 22.161428,972.06854 c -2.0349,-0.003 -4.0689,0.20308 -6.1,0.635 -0.444,0.0945 -0.8531,0.34536 -1.1386,0.69825 -0.1427,0.17645 -0.2551,0.37738 -0.3307,0.59137 -0.0757,0.21398 -0.1145,0.44092 -0.1144,0.66788 0.0099,15.8065 0.0196,31.61296 0.0291,47.41936 0,0.2836 0.0616,0.567 0.1789,0.8253 0.1172,0.2582 0.2901,0.491 0.5035,0.6779 0.2134,0.1868 0.467,0.3275 0.7384,0.4096 0.2715,0.082 0.5605,0.1057 0.8417,0.068 7.3812,-0.9771 15.0663,0.2705 23.3515,4.5941 l -29.1212,0 0,-45.15622 c 0.0033,-0.26385 -0.0463,-0.52826 -0.145,-0.77298 -0.0987,-0.24472 -0.2464,-0.46956 -0.4319,-0.65731 -0.1854,-0.18774 -0.4084,-0.33824 -0.6518003,-0.43998 -0.2435,-0.10174 -0.5073,-0.15463 -0.7711,-0.15463 -0.2639,0 -0.5277,0.0529 -0.7712,0.15463 -0.2434,0.10174 -0.4664,0.25224 -0.6518,0.43998 -0.1855,0.18775 -0.3332,0.41259 -0.4319,0.65731 -0.0987,0.24472 -0.1483,0.50913 -0.145,0.77298 l 0,47.15622 c 0,0.2618 0.0521,0.5234 0.1523,0.7653 0.1002,0.2418 0.2485,0.4636 0.4336,0.6487 0.1851,0.1851 0.407,0.3333 0.6488,0.4335 0.2419,0.1001 0.5035,0.1522 0.7653,0.1522 l 38.0794003,0 c 0.0462,0 0.0923,0 0.1384,0 0.2695,0.013 0.5415,-0.029 0.7944,-0.123 0.2529,-0.094 0.4864,-0.2398 0.6818,-0.4258 0.1954,-0.186 0.3527,-0.4119 0.4591,-0.6598 0.1064,-0.2479 0.162,-0.5176 0.1622,-0.7873 l -0.0294,-46.4147 c -0.0018,-0.71293 -0.3884,-1.12545 -0.7878,-1.58938 -8.6829,-6.61455 -17.5184,-10.56762 -26.3366,-10.58188 z m 0.0282,3.99532 c 7.4549,0.0108 15.1217,3.26111 23.0975,9.17781 l 0.0265,41.75373 c -9.3157,-5.6159 -18.2699,-7.7643 -26.8084,-7.1316 -0.0087,-14.5106 -0.0178,-29.02115 -0.0269,-43.53182 1.2315,-0.1808 2.4685,-0.26992 3.7113,-0.26812 z" fill="#000000" fill-opacity="1" fill-rule="evenodd" stroke="none" marker="none" visibility="visible" display="inline" overflow="visible"></path><path style="text-indent:0;text-transform:none;direction:ltr;block-progression:tb;baseline-shift:baseline;color:#000000;enable-background:accumulate;" d="m 77.828628,972.06854 c -8.8179,0.0143 -17.6519,3.96752 -26.3272,10.5825 -0.5658,0.43292 -0.6601,0.99007 -0.7874,1.58844 l -0.0394,46.41432 c 0,0.2676 0.0542,0.535 0.1586,0.7814 0.1044,0.2463 0.2588,0.4713 0.4512,0.6573 0.1923,0.1859 0.4224,0.3327 0.6721,0.4288 0.2497,0.096 0.5188,0.1413 0.7862,0.1322 0.0298,0 0.0596,0 0.0894,0 l 38.1681,0 c 0.2617,0 0.5234,-0.052 0.7652,-0.1523 0.2418,-0.1002 0.4636,-0.2484 0.6487,-0.4335 0.1851,-0.1851 0.3333,-0.4069 0.4335,-0.6487 0.1002,-0.2418 0.1523,-0.5034 0.1523,-0.7652 l 0,-47.1562 c 0.0046,-0.26467 -0.044,-0.53016 -0.1421,-0.77603 -0.0981,-0.24587 -0.2456,-0.47191 -0.4311,-0.66071 -0.1855,-0.18881 -0.409,-0.34022 -0.6531,-0.44259 -0.2441,-0.10237 -0.5087,-0.1556 -0.7734,-0.1556 -0.2647,0 -0.5293,0.0532 -0.7734,0.1556 -0.2441,0.10237 -0.4676,0.25378 -0.6531,0.44259 -0.1855,0.1888 -0.333,0.41484 -0.4311,0.66071 -0.0981,0.24587 -0.1467,0.51136 -0.1421,0.77603 l 0,45.1562 -29.1306,0 c 8.2875,-4.3235 15.9781,-5.5711 23.3509,-4.594 0.2812,0.037 0.5702,0.014 0.8417,-0.068 0.2714,-0.082 0.525,-0.2229 0.7384,-0.4097 0.2134,-0.1868 0.3863,-0.4196 0.5035,-0.6779 0.1173,-0.2582 0.1787,-0.5417 0.1789,-0.8253 0.0099,-15.8065 0.0193,-31.61288 0.0291,-47.41934 0,-0.22697 -0.0387,-0.45391 -0.1144,-0.6679 -0.0756,-0.21399 -0.188,-0.41493 -0.3308,-0.59138 -0.2855,-0.35289 -0.6946,-0.60376 -1.1386,-0.69822 -2.031,-0.43192 -4.065,-0.63829 -6.1,-0.635 z m -0.0278,3.99532 c 1.2427,-0.002 2.4795,0.0873 3.711,0.26812 -0.009,14.5107 -0.0176,29.02122 -0.0266,43.53182 -8.5325,-0.6324 -17.4914,1.5158 -26.8078,7.1313 l 0.0353,-41.75374 c 7.9681,-5.91636 15.6335,-9.16674 23.0881,-9.1775 z" fill="#000000" fill-opacity="1" fill-rule="evenodd" stroke="none" marker="none" visibility="visible" display="inline" overflow="visible"></path></g></svg>