<svg height='100px' width='100px'  fill="#000000" xmlns="http://www.w3.org/2000/svg" xmlns:xlink="http://www.w3.org/1999/xlink" version="1.1" x="0px" y="0px" viewBox="0 0 32 32" style="enable-background:new 0 0 32 32;" xml:space="preserve"><g><path d="M8.88324,30.81842L16,26.88129l7.11676,3.93713c0.21875,0.12097,0.46069,0.18146,0.70264,0.18146   c0.25519,0,0.50989-0.06714,0.73712-0.20129c0.44281-0.26086,0.71448-0.73621,0.71448-1.25031V4.38708   C25.271,2.51965,23.75134,1,21.88391,1H10.11609C8.24866,1,6.729,2.51965,6.729,4.38708v25.16119   c0,0.5141,0.27167,0.98944,0.71448,1.25031C7.88574,31.06036,8.43341,31.06696,8.88324,30.81842z M9.6322,4.38708   c0-0.26227,0.22162-0.48389,0.48389-0.48389h11.76782c0.26227,0,0.48389,0.22162,0.48389,0.48389v2.42877H9.6322V4.38708z    M9.6322,9.71906h12.7356v17.36731l-5.66516-3.13379C16.48389,23.8316,16.24194,23.77112,16,23.77112   s-0.48389,0.06049-0.70264,0.18146L9.6322,27.08636V9.71906z"></path></g></svg>