<svg height='100px' width='100px'  fill="#000000" xmlns="http://www.w3.org/2000/svg" version="1.1" viewBox="0 0 64 64" x="0px" y="0px"><title>cancel-1</title><path d="M32 1.902c-16.568 0-30.098 13.53-30.098 30.098s13.53 30.098 30.098 30.098c16.566 0 30.098-13.482 30.098-30.098s-13.532-30.098-30.098-30.098zM32 8.517c12.952 0 23.483 10.531 23.483 23.483s-10.531 23.483-23.483 23.483c-12.952 0-23.483-10.531-23.483-23.483s10.531-23.483 23.483-23.483zM22.623 19.018c-0.844 0-1.698 0.327-2.339 0.968-1.282 1.282-1.282 3.397 0 4.678l7.038 7.038-7.038 7.038c-1.281 1.281-1.281 3.396 0 4.677 0.622 0.622 1.484 0.969 2.339 0.969s1.718-0.347 2.339-0.969l7.038-7.038 7.038 7.038c0.622 0.622 1.484 0.969 2.339 0.969s1.718-0.347 2.339-0.969c1.281-1.281 1.281-3.396 0-4.677l-7.038-7.038 7.038-7.038c1.282-1.282 1.282-3.397 0-4.678s-3.397-1.282-4.678 0l-7.038 7.038-7.038-7.038c-0.641-0.641-1.496-0.968-2.339-0.968z"></path></svg>