<svg height='100px' width='100px'  fill="#000000" xmlns:dc="http://purl.org/dc/elements/1.1/" xmlns:cc="http://creativecommons.org/ns#" xmlns:rdf="http://www.w3.org/1999/02/22-rdf-syntax-ns#" xmlns:svg="http://www.w3.org/2000/svg" xmlns="http://www.w3.org/2000/svg" xmlns:sodipodi="http://sodipodi.sourceforge.net/DTD/sodipodi-0.dtd" xmlns:inkscape="http://www.inkscape.org/namespaces/inkscape" version="1.1" x="0px" y="0px" viewBox="0 0 100 100"><g transform="translate(0,-952.36218)"><path style="text-indent:0;text-transform:none;direction:ltr;block-progression:tb;baseline-shift:baseline;color:#000000;enable-background:accumulate;" d="m 17.843754,1032.3585 a 2.0002,2.0002 0 0 1 -1.84375,-2 l 0,-46.0001 c 0,-6.61341 5.38659,-12 12.000001,-12 l 44,0 c 6.61341,0 12,5.38659 12,12 l 0,22.0001 c 0,6.6134 -5.38659,12 -12,12 l -37.21875,0 -15.468751,13.5312 a 2.0002,2.0002 0 0 1 -1.46875,0.4688 z m 2.15625,-6.4063 12.687501,-11.0937 a 2.0002,2.0002 0 0 1 1.3125,-0.5 l 38,0 c 4.46661,0 8,-3.5334 8,-8 l 0,-22.0001 c 0,-4.46661 -3.53339,-8 -8,-8 l -44,0 c -4.466611,0 -8.000001,3.53339 -8.000001,8 l 0,41.5938 z m 13.000001,-25.5938 c -2.76144,0 -5,-2.2386 -5,-5 0,-2.7615 2.23856,-5 5,-5 2.76141,0 5,2.2385 5,5 0,2.7614 -2.23859,5 -5,5 z m 17,0 c -2.76141,0 -5,-2.2386 -5,-5 0,-2.7615 2.23859,-5 5,-5 2.76144,0 5,2.2385 5,5 0,2.7614 -2.23856,5 -5,5 z m 17,0 c -2.76141,0 -5,-2.2386 -5,-5 0,-2.7615 2.23859,-5 5,-5 2.76144,0 5,2.2385 5,5 0,2.7614 -2.23856,5 -5,5 z" fill="#000000" fill-opacity="1" stroke="none" marker="none" visibility="visible" display="inline" overflow="visible"></path></g></svg>