<svg height='100px' width='100px'  fill="#000000" xmlns="http://www.w3.org/2000/svg" xmlns:xlink="http://www.w3.org/1999/xlink" version="1.1" baseProfile="tiny" x="0px" y="0px" viewBox="0 0 100 100" xml:space="preserve"><g><g><g><path d="M77.762,97.5H22.235c-7.196,0-13.052-5.858-13.052-13.055V15.552C9.184,8.355,15.039,2.5,22.235,2.5h39.041     c4.419,0,29.54,25.562,29.54,30.058v51.888C90.816,91.642,84.958,97.5,77.762,97.5z M60.915,6.802L22.235,6.85     c-4.798,0-8.702,3.903-8.702,8.702v68.894c0,4.797,3.904,8.699,8.702,8.699h55.526c4.796,0,8.699-3.902,8.699-8.699V32.558     C85.362,29.291,64.559,8.108,60.915,6.802z"></path></g><g><path d="M88.644,34.87h-16.49c-7.196,0-13.055-5.855-13.055-13.052V4.675h4.355v17.144c0,4.799,3.903,8.702,8.699,8.702h16.49     V34.87z"></path></g></g><g><g><rect x="30.967" y="46.337" width="38.069" height="4.35"></rect></g><g><rect x="30.967" y="59.931" width="38.069" height="4.355"></rect></g><g><rect x="30.967" y="73.526" width="38.069" height="4.355"></rect></g></g></g></svg>