<svg height='100px' width='100px'  fill="#000000" xmlns:x="http://ns.adobe.com/Extensibility/1.0/" xmlns:i="http://ns.adobe.com/AdobeIllustrator/10.0/" xmlns:graph="http://ns.adobe.com/Graphs/1.0/" xmlns="http://www.w3.org/2000/svg" xmlns:xlink="http://www.w3.org/1999/xlink" version="1.1" x="0px" y="0px" viewBox="0 0 100 100" style="enable-background:new 0 0 100 100;" xml:space="preserve"><g><g i:extraneous="self"><g><path d="M5273.1,2400.1v-2c0-2.8-5-4-9.7-4s-9.7,1.3-9.7,4v2c0,1.8,0.7,3.6,2,4.9l5,4.9c0.3,0.3,0.4,0.6,0.4,1v6.4     c0,0.4,0.2,0.7,0.6,0.8l2.9,0.9c0.5,0.1,1-0.2,1-0.8v-7.2c0-0.4,0.2-0.7,0.4-1l5.1-5C5272.4,2403.7,5273.1,2401.9,5273.1,2400.1z      M5263.4,2400c-4.8,0-7.4-1.3-7.5-1.8v0c0.1-0.5,2.7-1.8,7.5-1.8c4.8,0,7.3,1.3,7.5,1.8C5270.7,2398.7,5268.2,2400,5263.4,2400z"></path><path d="M5268.4,2410.3c-0.6,0-1,0.4-1,1c0,0.6,0.4,1,1,1h4.3c0.6,0,1-0.4,1-1c0-0.6-0.4-1-1-1H5268.4z"></path><path d="M5272.7,2413.7h-4.3c-0.6,0-1,0.4-1,1c0,0.6,0.4,1,1,1h4.3c0.6,0,1-0.4,1-1C5273.7,2414.1,5273.3,2413.7,5272.7,2413.7z"></path><path d="M5272.7,2417h-4.3c-0.6,0-1,0.4-1,1c0,0.6,0.4,1,1,1h4.3c0.6,0,1-0.4,1-1C5273.7,2417.5,5273.3,2417,5272.7,2417z"></path></g><g><path d="M70.9,22.5h16.1c-0.3-0.5-0.7-1-1.2-1.5L69.9,5.1c-0.4-0.4-0.9-0.8-1.5-1.2v16C68.4,21.4,69.5,22.5,70.9,22.5z"></path><path d="M47.5,37.9c-0.1-0.2-0.3-0.4-0.9-0.4c-0.6,0-0.7,0.2-0.7,0.3c-0.6,1.4,0.1,4.5,1.5,7.8C48.3,41.4,48.2,38.9,47.5,37.9z"></path><path d="M70.9,29.2c-5.1,0-9.2-4.1-9.2-9.2V2.5l-41.1,0c0,0,0,0,0,0c-2.4,0-4.6,0.9-6.3,2.6c-1.7,1.7-2.6,3.9-2.6,6.3v77.1     c0,4.9,4,8.9,8.9,8.9h58.9c4.9,0,8.9-4,8.9-8.9V29.2H70.9z M71.2,66.1c-1.4,1.4-3.3,2.2-5.2,2.2c-2.8,0-6.1-1.6-9.8-4.6     c-2,0.4-4.2,1-6.8,1.7c-2.2,0.6-4.1,1.3-5.8,1.9c-3,5.4-6.9,10.9-10.6,11.8c-0.4,0.1-0.8,0.2-1.2,0.2c-1,0-1.9-0.3-2.7-1     c-1.3-1.1-1.9-2.6-1.6-4.2c0.8-4.1,7.4-7.6,13.4-10c0.8-1.5,1.5-3.1,2.2-4.7c1.2-3,2.2-5.7,2.9-8c-2.8-5.2-5.1-11.6-3.5-15.1     c0.8-1.7,2.3-2.7,4.3-2.7c1.8,0,3.2,0.7,4.1,2.1c1.8,2.6,1.5,7.7-0.7,15.3c1,1.7,2.1,3.3,3.1,4.4c1.4,1.5,2.8,2.9,4.1,4     c8-1.4,13.3-0.8,14.9,1.8C72.5,61.8,73.4,63.8,71.2,66.1z"></path><path d="M48.5,55.8c-0.6,1.6-1.2,3.3-1.9,5.1v0c-0.2,0.5-0.4,0.9-0.6,1.4c0.9-0.3,1.6-0.5,2.3-0.7c1.5-0.4,3-0.8,4.3-1.2     c-0.8-0.7-1.5-1.5-2.3-2.4C49.8,57.5,49.2,56.7,48.5,55.8z"></path><path d="M31.2,74.9c0.3,0.5,0.4,0.5,0.7,0.5c1.4-0.4,3.4-2.4,5.4-5.4C33.3,72,31.4,73.9,31.2,74.9z"></path><path d="M61.6,62.7c1.7,1,3.2,1.6,4.5,1.6c1.1,0.1,1.9-0.2,2.4-1C69,62.5,66.4,62.2,61.6,62.7z"></path></g></g></g></svg>