<svg height='100px' width='100px'  fill="#000000" xmlns="http://www.w3.org/2000/svg" data-name="1-Zip File" viewBox="0 0 32 32" x="0px" y="0px"><title>1-Zip File</title><path d="M28.71,6.29l-6-6A1,1,0,0,0,22,0H6A3,3,0,0,0,3,3V29a3,3,0,0,0,3,3H26a3,3,0,0,0,3-3V7A1,1,0,0,0,28.71,6.29ZM27,29a1,1,0,0,1-1,1H6a1,1,0,0,1-1-1V3A1,1,0,0,1,6,2h4V4A2,2,0,0,0,8,6h2V7A2,2,0,0,0,8,9h2v1a2,2,0,0,0-2,2h2v2H9a1,1,0,0,0-1,1v6a1,1,0,0,0,1,1h4a1,1,0,0,0,1-1V15a1,1,0,0,0-1-1H12V12a2,2,0,0,0,2-2H12V9a2,2,0,0,0,2-2H12V6a2,2,0,0,0,2-2H12V2h9V6a2,2,0,0,0,2,2h4ZM12,18v2H10V18Z"></path></svg>