<svg height='100px' width='100px'  fill="#000000" xmlns="http://www.w3.org/2000/svg" xmlns:xlink="http://www.w3.org/1999/xlink" version="1.1" x="0px" y="0px" viewBox="0 0 100 100" style="enable-background:new 0 0 100 100;" xml:space="preserve"><path d="M42,15H20c-1.1,0-2,0.9-2,2v32c0,1.1,0.9,2,2,2h22c1.1,0,2-0.9,2-2V17C44,15.9,43.1,15,42,15z M40,47h-7v-4c0-1.1-0.9-2-2-2  s-2,0.9-2,2v4h-7V19h18V47z M30,65c-5.51,0-10,4.49-10,10s4.49,10,10,10s10-4.49,10-10S35.51,65,30,65z M30,81c-3.31,0-6-2.69-6-6  s2.69-6,6-6s6,2.69,6,6S33.31,81,30,81z M90,33H80c-3.31,0-6,2.69-6,6v9c0,3.16,2.11,5.84,5,6.71V66c0,2.76-2.24,5-5,5s-5-2.24-5-5  V26.71c2.89-0.86,5-3.54,5-6.71v-3h2c1.1,0,2-0.9,2-2V7c0-1.1-0.9-2-2-2H66c-3.31,0-6,2.69-6,6v9c0,3.16,2.11,5.84,5,6.71V66  c0,4.27,3,7.86,7,8.77V79c0,3.31-2.69,6-6,6H54V11c0-3.31-2.69-6-6-6H14c-3.31,0-6,2.69-6,6v78c0,3.31,2.69,6,6,6h34  c3.31,0,6-2.69,6-6h12c5.51,0,10-4.49,10-10v-4.23c4-0.91,7-4.49,7-8.77V54.71c2.89-0.86,5-3.54,5-6.71v-3h2c1.1,0,2-0.9,2-2v-8  C92,33.9,91.1,33,90,33z M64,20v-9c0-1.1,0.9-2,2-2h8v4h-2c-1.1,0-2,0.9-2,2v5c0,1.65-1.35,3-3,3S64,21.65,64,20z M50,89  c0,1.1-0.9,2-2,2H14c-1.1,0-2-0.9-2-2V11c0-1.1,0.9-2,2-2h34c1.1,0,2,0.9,2,2V89z M88,41h-2c-1.1,0-2,0.9-2,2v5c0,1.65-1.35,3-3,3  s-3-1.35-3-3v-9c0-1.1,0.9-2,2-2h8V41z"></path></svg>