<svg height='100px' width='100px'  fill="#000000" xmlns="http://www.w3.org/2000/svg" viewBox="0 0 32 32" x="0px" y="0px"><title>15-Zip File-Security</title><g data-name="15-Zip File-Security"><path d="M4,29V3A1,1,0,0,1,5,2H9V4A2,2,0,0,0,7,6H9V7A2,2,0,0,0,7,9H9v1a2,2,0,0,0-2,2H9v2H8a1,1,0,0,0-1,1v6a1,1,0,0,0,1,1h4a1,1,0,0,0,1-1V15a1,1,0,0,0-1-1H11V12a2,2,0,0,0,2-2H11V9a2,2,0,0,0,2-2H11V6a2,2,0,0,0,2-2H11V2h9V6a2,2,0,0,0,2,2h4v4h2V7a1,1,0,0,0-.29-.71l-6-6A1,1,0,0,0,21,0H5A3,3,0,0,0,2,3V29a3,3,0,0,0,3,3H16V30H5A1,1,0,0,1,4,29Zm7-9H9V18h2Z"></path><path d="M29,19H28V17a2,2,0,0,0-2-2H22a2,2,0,0,0-2,2v2H19a1,1,0,0,0-1,1v8a1,1,0,0,0,1,1H29a1,1,0,0,0,1-1V20A1,1,0,0,0,29,19Zm-7-2h4v2H22Zm6,10H20V21h8Z"></path><rect x="23" y="23" width="2" height="2"></rect></g></svg>