<svg height='100px' width='100px'  fill="#000000" xmlns="http://www.w3.org/2000/svg" xmlns:xlink="http://www.w3.org/1999/xlink" version="1.1" x="0px" y="0px" viewBox="0 0 100 100" enable-background="new 0 0 100 100" xml:space="preserve"><g><rect x="12.5" y="38.749" fill="none" width="7.501" height="7.5"></rect><rect x="12.5" y="23.75" fill="none" width="7.501" height="7.498"></rect><rect x="12.5" y="68.751" fill="none" width="7.501" height="7.499"></rect><path fill="none" d="M68.749,31.248h-37.5c-2.07,0-3.75,1.682-3.75,3.752v30.704c0.038,1.664,1.702,2.981,3.332,2.981h38.42   c1.906,0,3.314-1.685,3.311-3.536L72.499,35C72.499,32.93,70.819,31.248,68.749,31.248z"></path><rect x="12.5" y="53.751" fill="none" width="7.501" height="7.498"></rect><rect x="80.002" y="23.75" fill="none" width="7.5" height="7.498"></rect><rect x="80.002" y="53.751" fill="none" width="7.5" height="7.498"></rect><rect x="80.002" y="68.751" fill="none" width="7.5" height="7.499"></rect><rect x="80.002" y="38.749" fill="none" width="7.5" height="7.5"></rect><path d="M87.5,12.624v3.624h-7.498v-3.626h-7.501v7.376c0,2.074-1.68,3.75-3.75,3.75h-37.5c-2.07,0-3.75-1.678-3.75-3.75v-7.376   h-7.5v3.626H12.5v-3.626H5v74.753h7.5v-3.624h7.5l0.002,3.624h7.5V80c0-2.074,1.68-3.752,3.75-3.752h37.499   c2.07,0,3.75,1.678,3.75,3.752v7.376h7.501v-3.626l7.5,0.002v3.626H95V12.624H87.5z M20.001,76.25H12.5v-7.498l7.501-0.002V76.25z    M20.001,61.249H12.5v-7.498h7.501V61.249z M20.001,46.249H12.5v-7.5h7.501V46.249z M20.001,31.248H12.5V23.75h7.501V31.248z    M69.251,68.686h-38.42c-1.629,0-3.293-1.317-3.332-2.981V35c0-2.07,1.68-3.752,3.75-3.752h37.5c2.07,0,3.75,1.682,3.75,3.752   l0.063,30.15C72.565,67.001,71.157,68.686,69.251,68.686z M87.502,76.25h-7.5v-7.498l7.5-0.002V76.25z M87.502,61.249h-7.5v-7.498   h7.5V61.249z M87.502,46.249h-7.5v-7.5h7.5V46.249z M87.502,31.248h-7.5V23.75h7.5V31.248z"></path></g></svg>