<svg height='100px' width='100px'  fill="#000000" xmlns="http://www.w3.org/2000/svg" xmlns:xlink="http://www.w3.org/1999/xlink" version="1.1" x="0px" y="0px" viewBox="0 0 90 90" enable-background="new 0 0 90 90" xml:space="preserve"><path fill-rule="evenodd" clip-rule="evenodd" d="M34.17,66.283L6.517,55.827c-0.774-0.296-1.453-0.691-2.041-1.188  c-0.506-0.427-0.944-0.924-1.31-1.492c-0.095-0.155-0.186-0.313-0.273-0.477c-0.073-0.126-0.14-0.255-0.204-0.386  c-0.017-0.038-0.035-0.075-0.051-0.112c-0.126-0.28-0.234-0.561-0.324-0.842c-0.172-0.552-0.274-1.103-0.304-1.654  c-0.041-0.704,0.038-1.407,0.233-2.112c0.085-0.34,0.2-0.677,0.345-1.015l10.558-24.384c0.77-1.759,2.045-2.994,3.828-3.705  c1.779-0.712,3.553-0.685,5.319,0.082c1.767,0.765,3.005,2.037,3.716,3.817c0.712,1.779,0.688,3.556-0.072,5.33l-3.086,7.125  c20.72-9.254,36.166-12.729,46.342-10.425c16.569,2.372,22.365,15.715,17.39,40.026c-0.392,1.879-1.39,3.347-2.995,4.407  c-1.607,1.063-3.352,1.401-5.228,1.015c-1.876-0.389-3.347-1.388-4.407-2.995c-1.062-1.609-1.398-3.352-1.015-5.228  c2.785-13.597,0.658-21.447-6.384-23.551c-8.651-1.339-22.015,2.128-40.089,10.405l12.639,4.782  c1.788,0.682,3.079,1.899,3.877,3.653c0.792,1.755,0.846,3.527,0.162,5.32c-0.678,1.793-1.894,3.09-3.644,3.888  C37.746,66.907,35.969,66.965,34.17,66.283z"></path></svg>