<svg height='100px' width='100px'  fill="#000000" xmlns="http://www.w3.org/2000/svg" xmlns:xlink="http://www.w3.org/1999/xlink" version="1.1" x="0px" y="0px" viewBox="0 0 16 16" style="enable-background:new 0 0 16 16;" xml:space="preserve"><title>finite-icons</title><path d="M8,15c3.9,0,7-3.1,7-7s-3.1-7-7-7S1,4.1,1,8C1,11.9,4.1,15,8,15z M8,3c2.8,0,5,2.2,5,5s-2.2,5-5,5s-5-2.2-5-5  C3,5.2,5.2,3,8,3z"></path><path d="M7.5,7h1C8.8,7,9,7.2,9,7.5v4C9,11.8,8.8,12,8.5,12h-1C7.2,12,7,11.8,7,11.5v-4C7,7.2,7.2,7,7.5,7z"></path><circle cx="8" cy="5" r="1"></circle></svg>