<svg height='100px' width='100px'  fill="#000000" xmlns="http://www.w3.org/2000/svg" data-name="Layer 1" viewBox="0 0 100 100" x="0px" y="0px"><title>Artboard 3</title><path d="M26.32,69.35l1.55,3.47a4,4,0,0,0,2.22,2.1l2.74,1L32,78.2a4.45,4.45,0,0,0,2.57,5.75l2.23.85-1,2.73a4,4,0,0,0,.08,3.06l1.32,3a3.76,3.76,0,0,0,2.09,2l8.49,3.25A3.36,3.36,0,0,0,52,96.84l3.26-8.49a3.79,3.79,0,0,0-.08-2.88L44.42,61.27A22.76,22.76,0,0,0,46.07,59a2.5,2.5,0,1,0-4.24-2.65,17.25,17.25,0,0,1-2.16,2.78,2.5,2.5,0,0,0-.48,2.75L50.43,87l-2.49,6.48L41.46,91l-.94-2.1,1.59-4.15a3.07,3.07,0,0,0-1.77-4l-3.52-1.35L38.18,76a3.07,3.07,0,0,0-1.77-4L32.26,70.4l-2-4.56a2.47,2.47,0,0,0-2.37-1.48A17.18,17.18,0,0,1,12,39.37,2.5,2.5,0,1,0,7.52,37.1a22.18,22.18,0,0,0,18.8,32.25Z"></path><path d="M26.63,47.17a25.17,25.17,0,0,0,26.63.57l3.85,2.52a4.17,4.17,0,0,0,3.07.62l.1,0,3.66-.76.64,3.06a4.74,4.74,0,0,0,5.61,3.67l3.06-.64L74,59.84a4.23,4.23,0,0,0,1.81,2.67h0l3.11,2a3.94,3.94,0,0,0,2.16.65,4,4,0,0,0,.81-.08L92.14,63a3.49,3.49,0,0,0,2.7-4.13L92.71,48.62A3.94,3.94,0,0,0,91,46.12L65.34,29.3A25.14,25.14,0,1,0,26.63,47.17ZM23.55,15.11A20.13,20.13,0,0,1,60.16,30a2.5,2.5,0,0,0,1.08,2.57L87.91,50.07l1.74,8.33-8.33,1.74-2.48-1.62-1.07-5.15A3.15,3.15,0,0,0,74,50.92l-4.61,1-1-4.61a3.15,3.15,0,0,0-3.73-2.44L59.57,45.9l-4.93-3.23a2.5,2.5,0,0,0-2.79,0,20.14,20.14,0,0,1-28.3-27.59Z"></path><path d="M30.73,29.11A7.73,7.73,0,0,0,35,30.39a7.88,7.88,0,0,0,1.6-.17,7.78,7.78,0,1,0-5.85-1.11Zm1.94-8a2.76,2.76,0,0,1,1.76-1.2,2.82,2.82,0,0,1,.57-.06,2.78,2.78,0,0,1,2.32,4.31h0a2.78,2.78,0,0,1-4.65-3Z"></path></svg>