<svg height='100px' width='100px'  fill="#000000" xmlns="http://www.w3.org/2000/svg" xmlns:xlink="http://www.w3.org/1999/xlink" version="1.1" x="0px" y="0px" viewBox="0 0 20 20" enable-background="new 0 0 20 20" xml:space="preserve"><g><path fill="#000000" d="M19.4,3.8l-3.2-3.2c-0.8-0.8-2.1-0.8-2.8,0L9.6,4.3c-0.8,0.8-0.8,2,0,2.8l0.9,0.9L9.3,9.3l1.4,1.4l1.2-1.2   l0.9,0.9c0.4,0.4,0.9,0.6,1.4,0.6c0.5,0,1-0.2,1.4-0.6l3.8-3.8C19.8,6.3,20,5.8,20,5.2C20,4.7,19.8,4.2,19.4,3.8z M14.2,9L14.2,9   L14.2,9l-0.9-0.9l1.4-1.4l-1.4-1.4l-1.4,1.4L11,5.8L14.8,2L18,5.2L14.2,9z"></path><path fill="#000000" d="M7.2,9.6c-0.8-0.8-2.1-0.8-2.8,0l-3.8,3.8c-0.8,0.8-0.8,2,0,2.8l3.2,3.2C4.2,19.8,4.7,20,5.2,20   c0.5,0,1-0.2,1.4-0.6l3.8-3.8c0.4-0.4,0.6-0.9,0.6-1.4c0-0.5-0.2-1-0.6-1.4L7.2,9.6z M5.2,18C5.2,18,5.2,18,5.2,18L5.2,18L2,14.8   L5.8,11l0.9,0.9l-1.4,1.4l1.4,1.4l1.4-1.4L9,14.2L5.2,18z"></path><rect y="6" fill="#000000" width="3" height="2"></rect><rect x="1.3" y="1.9" transform="matrix(0.707 0.7072 -0.7072 0.707 2.8792 -1.1926)" fill="#000000" width="3.2" height="2"></rect><rect x="6" y="0" fill="#000000" width="2" height="3"></rect></g></svg>