<svg height='100px' width='100px'  fill="#000000" xmlns="http://www.w3.org/2000/svg" xmlns:xlink="http://www.w3.org/1999/xlink" version="1.1" x="0px" y="0px" viewBox="0 0 20 20" enable-background="new 0 0 20 20" xml:space="preserve"><path fill="#000000" d="M19.4,3.3l-2.7-2.7c-0.8-0.8-2.1-0.8-2.8,0L9.6,4.9C9.2,5.2,9,5.7,9,6.3c0,0.5,0.2,1,0.6,1.4l0.6,0.6  l-1.9,1.9L7.7,9.6c-0.8-0.8-2.1-0.8-2.8,0l-4.3,4.3C0.2,14.2,0,14.7,0,15.3c0,0.5,0.2,1,0.6,1.4l2.7,2.7C3.7,19.8,4.2,20,4.7,20  s1-0.2,1.4-0.6l4.3-4.3c0.8-0.8,0.8-2,0-2.8l-0.6-0.6l1.9-1.9l0.6,0.6c0.4,0.4,0.9,0.6,1.4,0.6c0.5,0,1-0.2,1.4-0.6l4.3-4.3  C20.2,5.3,20.2,4.1,19.4,3.3z M9,13.7L4.7,18h0h0L2,15.3L6.3,11l0.6,0.6L5,13.6L6.4,15l1.9-1.9L9,13.7z M13.7,9  C13.7,9,13.7,9,13.7,9L13.7,9l-0.6-0.6L15,6.4L13.6,5l-1.9,1.9L11,6.3L15.3,2L18,4.7L13.7,9z"></path></svg>