<svg height='100px' width='100px'  fill="#000000" xmlns="http://www.w3.org/2000/svg" data-name="Layer 1" viewBox="0 0 64 64" x="0px" y="0px"><title>1</title><polygon points="41.37 56.84 35.03 64 41.88 64 48.22 56.84 41.37 56.84"></polygon><path d="M44.36,64h6.52a2,2,0,0,0,2-2V56.84H50.68Z"></path><path d="M11.14,56.84V62a2,2,0,0,0,2,2h.81l6.33-7.16Z"></path><polygon points="22.74 56.84 16.4 64 23.24 64 29.59 56.84 22.74 56.84"></polygon><polygon points="32.05 56.84 25.71 64 32.57 64 38.9 56.84 32.05 56.84"></polygon><path d="M50.88,31.72H13.12a2,2,0,0,0-2,2V55H52.86V33.7A2,2,0,0,0,50.88,31.72Z"></path><path d="M18.9,29.87H22V17a9.93,9.93,0,0,1,9.92-9.91h.18A9.92,9.92,0,0,1,42,17V29.87h7.13V17a17.05,17.05,0,0,0-17-17h-.18a17.06,17.06,0,0,0-17,17V29.87h4Z"></path></svg>