<svg height='100px' width='100px'  fill="#000000" xmlns="http://www.w3.org/2000/svg" xmlns:xlink="http://www.w3.org/1999/xlink" version="1.1" x="0px" y="0px" viewBox="0 0 100 100" enable-background="new 0 0 100 100" xml:space="preserve"><g><path d="M72.08,34.997H56.841l1.629-2.103c0.417-0.539,0.597-1.224,0.496-1.897c-0.1-0.674-0.471-1.278-1.025-1.672l-6.773-4.808   c-1.091-0.774-2.595-0.554-3.416,0.498l-7.811,9.982H27.919c-7.113,0-12.685,8.994-12.685,20.475s5.571,20.474,12.685,20.474h44.16   c7.113,0,12.686-8.993,12.686-20.474S79.193,34.997,72.08,34.997z M23.575,68.008h15.418c1.381,0,2.5-1.119,2.5-2.5   s-1.119-2.5-2.5-2.5H21.26c-0.639-2.18-1.025-4.726-1.025-7.537c0-2.363,0.276-4.534,0.742-6.463h19.742c1.381,0,2.5-1.119,2.5-2.5   s-1.119-2.5-2.5-2.5H22.895c1.442-2.534,3.279-4.011,5.025-4.011h13.239c0.769,0,1.495-0.354,1.969-0.959l7.092-9.062l2.702,1.918   l-3.154,4.073c-0.584,0.754-0.688,1.775-0.268,2.631c0.42,0.856,1.29,1.399,2.244,1.399h11.963   c-2.442,3.431-4.03,8.37-4.267,14.011H41.953c-1.381,0-2.5,1.119-2.5,2.5s1.119,2.5,2.5,2.5h17.637   c0.497,4.776,1.979,8.934,4.117,11.938H27.919C26.438,70.945,24.892,69.876,23.575,68.008z M72.08,70.945   c-3.635,0-7.685-6.355-7.685-15.474c0-9.12,4.05-15.475,7.685-15.475s7.686,6.355,7.686,15.475   C79.765,64.59,75.714,70.945,72.08,70.945z"></path><path d="M72.08,42.761c-4.259,0-5.77,6.847-5.77,12.71c0,5.863,1.511,12.709,5.77,12.709s5.771-6.847,5.771-12.709   C77.85,49.608,76.338,42.761,72.08,42.761z M72.08,61.724c-0.406-1.38-0.77-3.513-0.77-6.252s0.363-4.873,0.77-6.252   c0.407,1.379,0.771,3.513,0.771,6.252S72.487,60.344,72.08,61.724z"></path><path d="M46.77,49.008h6.375c1.381,0,2.5-1.119,2.5-2.5s-1.119-2.5-2.5-2.5H46.77c-1.381,0-2.5,1.119-2.5,2.5   S45.389,49.008,46.77,49.008z"></path><path d="M35.232,54.008h-6.911c-1.381,0-2.5,1.119-2.5,2.5s1.119,2.5,2.5,2.5h6.911c1.381,0,2.5-1.119,2.5-2.5   S36.613,54.008,35.232,54.008z"></path><path d="M52.189,63.008h-6.75c-1.381,0-2.5,1.119-2.5,2.5s1.119,2.5,2.5,2.5h6.75c1.381,0,2.5-1.119,2.5-2.5   S53.57,63.008,52.189,63.008z"></path></g></svg>