<svg height='100px' width='100px'  fill="#000000" xmlns="http://www.w3.org/2000/svg" xmlns:xlink="http://www.w3.org/1999/xlink" version="1.1" x="0px" y="0px" viewBox="0 0 100 100" enable-background="new 0 0 100 100" xml:space="preserve"><path d="M81.844,17.989c-5.48-5.48-12.777-8.499-20.549-8.499c-7.771,0-15.068,3.019-20.548,8.499  c-10.565,10.565-11.563,27.35-2.519,38.809l-2.892,2.965c-0.308-0.116-0.68-0.192-1.128-0.192c-1.223,0-2.719,0.608-3.557,1.447  L10.079,81.589C9.417,82.25,9.077,83.13,9.12,84.067c0.04,0.873,0.413,1.705,1.048,2.34l3.085,3.086  c0.655,0.655,1.506,1.017,2.397,1.017c0.877,0,1.714-0.353,2.355-0.994l20.572-20.571c0.842-0.843,1.732-2.63,1.454-4.146  l3.067-3.144c5.011,3.922,11.275,6.067,17.793,6.067c0.001,0,0.001,0,0.002,0c7.939,0,15.38-3.067,20.948-8.637  c5.48-5.48,8.499-12.778,8.499-20.548S87.324,23.469,81.844,17.989z M76.979,54.222c-4.216,4.215-10.091,6.633-16.12,6.633  c-5.932,0-11.45-2.252-15.539-6.341c-8.501-8.503-8.369-23.002,0.291-31.661c4.182-4.182,9.752-6.485,15.685-6.485  c5.932,0,11.502,2.303,15.685,6.485C85.628,31.501,85.628,45.573,76.979,54.222z"></path></svg>