<svg height='100px' width='100px'  fill="#000000" xmlns="http://www.w3.org/2000/svg" xmlns:xlink="http://www.w3.org/1999/xlink" style="isolation:isolate;" viewBox="0 0 32 32" x="0px" y="0px"><path d=" M 31 12.02 L 31 22 C 31 23.33 30.47 24.6 29.54 25.54 C 28.6 26.47 27.33 27 26 27 L 6 27 C 4.67 27 3.4 26.47 2.46 25.54 C 1.53 24.6 1 23.33 1 22 L 1 12.02 C 0.98 11.44 1.16 10.87 1.52 10.42 C 1.9 9.96 2.48 9.69 3.08 9.7 C 3.49 9.71 3.89 9.82 4.25 10 L 14.65 15.2 C 15.07 15.4 15.53 15.49 16 15.48 C 16.47 15.49 16.93 15.4 17.35 15.2 L 27.75 10 C 28.11 9.82 28.51 9.71 28.92 9.7 C 29.52 9.69 30.1 9.96 30.48 10.42 C 30.84 10.87 31.02 11.44 31 12.02 Z  M 29 12 L 29 22 C 29 22.8 28.68 23.56 28.12 24.12 C 27.56 24.68 26.8 25 26 25 L 6 25 C 5.2 25 4.44 24.68 3.88 24.12 C 3.32 23.56 3 22.8 3 22 L 3 12 C 3 11.98 3 11.97 3 11.95 C 2.99 11.87 3.01 11.78 3.06 11.7 C 3.15 11.71 3.24 11.73 3.32 11.78 C 3.33 11.78 3.33 11.79 3.34 11.79 L 13.76 17 C 13.77 17 13.78 17.01 13.79 17.01 C 14.48 17.33 15.24 17.49 16 17.48 C 16.76 17.49 17.52 17.33 18.21 17.01 C 18.22 17.01 18.23 17 18.24 17 L 28.66 11.79 C 28.67 11.79 28.67 11.78 28.68 11.78 C 28.76 11.73 28.85 11.71 28.94 11.7 C 28.99 11.78 29.01 11.87 29 11.95 C 29 11.97 29 11.98 29 12 Z " fill-rule="evenodd" fill="#000000"></path><path d=" M 3.55 11.83 C 3.33 11.98 3.06 12.03 2.8 11.98 C 2.54 11.93 2.32 11.78 2.17 11.55 C 2.02 11.33 1.97 11.06 2.02 10.8 C 2.07 10.54 2.22 10.32 2.45 10.17 L 5.45 8.17 C 5.67 8.02 5.94 7.97 6.2 8.02 C 6.46 8.07 6.68 8.22 6.83 8.45 C 6.98 8.67 7.03 8.94 6.98 9.2 C 6.93 9.46 6.78 9.68 6.55 9.83 L 3.55 11.83 Z " fill="#000000"></path><path d=" M 25.45 9.83 C 25.22 9.68 25.07 9.46 25.02 9.2 C 24.97 8.94 25.02 8.67 25.17 8.45 C 25.32 8.22 25.54 8.07 25.8 8.02 C 26.06 7.97 26.33 8.02 26.55 8.17 L 29.55 10.17 C 29.78 10.32 29.93 10.54 29.98 10.8 C 30.03 11.06 29.98 11.33 29.83 11.55 C 29.68 11.78 29.46 11.93 29.2 11.98 C 28.94 12.03 28.67 11.98 28.45 11.83 L 25.45 9.83 Z " fill="#000000"></path><path d=" M 10.79 6.82 C 10.57 6.97 10.3 7.03 10.04 6.98 C 9.78 6.94 9.55 6.79 9.4 6.57 C 9.25 6.35 9.19 6.08 9.24 5.82 C 9.29 5.56 9.44 5.33 9.65 5.18 L 13.79 2.32 C 13.79 2.31 13.8 2.31 13.81 2.3 C 14.46 1.88 15.22 1.65 16 1.67 C 16.78 1.65 17.54 1.88 18.19 2.3 C 18.2 2.31 18.21 2.31 18.21 2.32 L 22.35 5.18 C 22.56 5.33 22.71 5.56 22.76 5.82 C 22.81 6.08 22.75 6.35 22.6 6.57 C 22.45 6.79 22.22 6.94 21.96 6.98 C 21.7 7.03 21.43 6.97 21.21 6.82 L 17.09 3.97 C 16.76 3.76 16.38 3.65 16 3.67 C 15.62 3.65 15.24 3.76 14.91 3.97 L 10.79 6.82 Z " fill="#000000"></path><path d=" M 18.21 17.01 C 17.52 17.33 16.76 17.49 16 17.48 C 15.24 17.49 14.48 17.33 13.79 17.01 C 13.78 17.01 13.77 17 13.76 17 L 5 12.62 L 5 10 C 5 8.67 5.53 7.4 6.46 6.46 C 7.4 5.53 8.67 5 10 5 L 22 5 C 23.33 5 24.6 5.53 25.54 6.46 C 26.47 7.4 27 8.67 27 10 L 27 12.62 L 18.24 17 C 18.23 17 18.22 17.01 18.21 17.01 Z  M 17.35 15.2 C 16.94 15.4 16.49 15.49 16.03 15.48 C 15.53 15.49 15.07 15.4 14.65 15.2 L 7 11.38 L 7 10 C 7 9.2 7.32 8.44 7.88 7.88 C 8.44 7.32 9.2 7 10 7 L 22 7 C 22.8 7 23.56 7.32 24.12 7.88 C 24.68 8.44 25 9.2 25 10 L 25 11.38 L 17.35 15.2 Z " fill-rule="evenodd" fill="#000000"></path><path d=" M 21 9 C 21.27 9 21.52 9.11 21.71 9.29 C 21.89 9.48 22 9.73 22 10 C 22 10.27 21.89 10.52 21.71 10.71 C 21.52 10.89 21.27 11 21 11 L 11 11 C 10.73 11 10.48 10.89 10.29 10.71 C 10.11 10.52 10 10.27 10 10 C 10 9.73 10.11 9.48 10.29 9.29 C 10.48 9.11 10.73 9 11 9 L 21 9 Z " fill="#000000"></path></svg>