<svg height='100px' width='100px'  fill="#000000" xmlns="http://www.w3.org/2000/svg" xmlns:xlink="http://www.w3.org/1999/xlink" style="isolation:isolate;" viewBox="0 0 32 32" x="0px" y="0px"><path d=" M 29.55 9.11 C 29.79 8.99 30.06 8.97 30.32 9.05 C 30.57 9.14 30.78 9.32 30.89 9.55 C 31.01 9.79 31.03 10.06 30.95 10.32 C 30.86 10.57 30.68 10.78 30.45 10.89 L 18.24 17 C 18.23 17 18.22 17.01 18.21 17.01 C 17.52 17.33 16.76 17.49 16 17.48 C 15.24 17.49 14.48 17.33 13.79 17.01 C 13.78 17.01 13.77 17 13.76 17 L 1.55 10.89 C 1.32 10.78 1.14 10.57 1.05 10.32 C 0.97 10.06 0.99 9.79 1.11 9.55 C 1.22 9.32 1.43 9.14 1.68 9.05 C 1.94 8.97 2.21 8.99 2.45 9.11 L 14.65 15.2 C 15.07 15.4 15.53 15.49 16 15.48 C 16.47 15.49 16.93 15.4 17.35 15.2 L 29.55 9.11 Z " fill="#000000"></path><circle vector-effect="non-scaling-stroke" cx="27.5" cy="25.5" r="3.5" fill="#000000"></circle><path d=" M 21 25 C 21.27 25 21.52 25.11 21.71 25.29 C 21.89 25.48 22 25.73 22 26 C 22 26.27 21.89 26.52 21.71 26.71 C 21.52 26.89 21.27 27 21 27 L 6 27 C 4.67 27 3.4 26.47 2.46 25.54 C 1.53 24.6 1 23.33 1 22 L 1 10 C 1 8.67 1.53 7.4 2.46 6.46 C 3.4 5.53 4.67 5 6 5 L 26 5 C 27.33 5 28.6 5.53 29.54 6.46 C 30.47 7.4 31 8.67 31 10 L 31 20 C 31 20.27 30.89 20.52 30.71 20.71 C 30.52 20.89 30.27 21 30 21 C 29.73 21 29.48 20.89 29.29 20.71 C 29.11 20.52 29 20.27 29 20 L 29 10 C 29 9.2 28.68 8.44 28.12 7.88 C 27.56 7.32 26.8 7 26 7 L 6 7 C 5.2 7 4.44 7.32 3.88 7.88 C 3.32 8.44 3 9.2 3 10 L 3 22 C 3 22.8 3.32 23.56 3.88 24.12 C 4.44 24.68 5.2 25 6 25 L 21 25 Z " fill="#000000"></path></svg>