<svg height='100px' width='100px'  fill="#000000" xmlns="http://www.w3.org/2000/svg" xmlns:xlink="http://www.w3.org/1999/xlink" version="1.1" x="0px" y="0px" viewBox="0 0 100 100" style="enable-background:new 0 0 100 100;" xml:space="preserve"><g><path d="M84,36.5c0-0.6-0.2-1.1-0.5-1.6l0,0l-10-16C73,18,72,17.5,71,17.5H29c-1,0-2,0.5-2.5,1.4l-10,16l0,0   c-0.3,0.5-0.5,1-0.5,1.6v42c0,1.7,1.3,3,3,3h62c1.7,0,3-1.3,3-3V36.5z M75.6,33.5H53v-10h16.3L75.6,33.5z M30.7,23.5H47v10H24.4   L30.7,23.5z M57,75.5H43v-5h14V75.5z M78,75.5H63v-8c0-1.7-1.3-3-3-3H40c-1.7,0-3,1.3-3,3v8H22v-36h56V75.5z"></path><rect x="38.5" y="51.8" width="23" height="6"></rect></g></svg>