<svg height='100px' width='100px'  fill="#000000" xmlns:x="http://ns.adobe.com/Extensibility/1.0/" xmlns:i="http://ns.adobe.com/AdobeIllustrator/10.0/" xmlns:graph="http://ns.adobe.com/Graphs/1.0/" xmlns="http://www.w3.org/2000/svg" xmlns:xlink="http://www.w3.org/1999/xlink" version="1.1" x="0px" y="0px" viewBox="0 0 100 100" style="enable-background:new 0 0 100 100;" xml:space="preserve"><g><g i:extraneous="self"><path d="M96.2,15.4c-1.5-2.2-3.2-4.3-5.3-6.3c-1.4-1.4-3.5-3.1-6.2-5C81.4,1.8,77,2.2,74.2,5L11.6,67.6c-0.3,0.3-0.5,0.7-0.7,1.1    L2.7,91.8c-0.5,1.5-0.2,3.2,1,4.3c0.8,0.8,1.9,1.2,2.9,1.2c0.5,0,0.9-0.1,1.4-0.2L31.2,89c0.4-0.1,0.8-0.4,1.1-0.7l62.8-62.8    C97.8,22.8,98.3,18.5,96.2,15.4z M15.1,74.3c4,2.9,7.5,6.5,10.5,10.5l-10.4,3.7c-0.4-0.7-1-1.5-1.6-2.1c-0.7-0.7-1.4-1.2-2.1-1.6    L15.1,74.3z M91,21.4L30.6,81.8c-3.4-4.8-7.7-9-12.5-12.5L78.3,9.1c0.8-0.8,2.1-0.9,3-0.2c2.4,1.7,4.3,3.1,5.4,4.3    c1.8,1.8,3.3,3.6,4.6,5.5C91.9,19.4,91.7,20.7,91,21.4z"></path></g></g></svg>