<svg height='100px' width='100px'  fill="#000000" xmlns:dc="http://purl.org/dc/elements/1.1/" xmlns:cc="http://creativecommons.org/ns#" xmlns:rdf="http://www.w3.org/1999/02/22-rdf-syntax-ns#" xmlns:svg="http://www.w3.org/2000/svg" xmlns="http://www.w3.org/2000/svg" xmlns:sodipodi="http://sodipodi.sourceforge.net/DTD/sodipodi-0.dtd" xmlns:inkscape="http://www.inkscape.org/namespaces/inkscape" version="1.1" x="0px" y="0px" viewBox="0 0 100 100"><g transform="translate(0,-952.36218)"><path style="text-indent:0;text-transform:none;direction:ltr;block-progression:tb;baseline-shift:baseline;color:#000000;enable-background:accumulate;" d="m 7.6875,965.3622 c -1.4638429,0.15343 -2.6953741,1.52816 -2.6875,3 l 0,67.9999 c 1.23e-4,1.5708 1.4292249,2.9999 3,3.0001 l 84,0 c 1.570775,-2e-4 2.999877,-1.4293 3,-3.0001 l 0,-67.9999 c -1.54e-4,-1.57075 -1.429245,-2.99984 -3,-3 -28.097159,0 -56.237608,0 -84.3125,0 z m 3.3125,6 78,0 0,50.25 -15.78125,-17.2812 c -0.610217,-0.6682 -1.535114,-1.0358 -2.4375,-0.9688 -0.390587,0.029 -0.775199,0.1362 -1.125,0.3124 l -25.5,12.75 -9.9375,-11.0624 c -0.597647,-0.6709 -1.509112,-1.0497 -2.40625,-1 -0.401148,0.025 -0.796969,0.1323 -1.15625,0.3125 L 11,1014.4871 z m 37,10 c -6.039621,0 -11,4.96041 -11,11 0,6.03958 4.960397,11 11,11 6.039594,0 11,-4.96042 11,-11 0,-6.03959 -4.960388,-11 -11,-11 z m 0,5.99999 c 2.796934,0 5,2.20305 5,5.00001 0,2.79694 -2.203048,4.99999 -5,4.99999 -2.796971,0 -5,-2.20305 -5,-4.99999 0,-2.79696 2.203047,-5.00001 5,-5.00001 z m 22.3125,22.68751 18.6875,20.5 0,2.8125 -29.65625,0 -11.0625,-12.3125 z m -39.03125,1 20.03125,22.3125 -40.3125,0 0,-12.1875 z" fill="#000000" fill-opacity="1" stroke="none" marker="none" visibility="visible" display="inline" overflow="visible"></path></g></svg>