<svg height='100px' width='100px'  fill="#000000" xmlns:dc="http://purl.org/dc/elements/1.1/" xmlns:cc="http://creativecommons.org/ns#" xmlns:rdf="http://www.w3.org/1999/02/22-rdf-syntax-ns#" xmlns:svg="http://www.w3.org/2000/svg" xmlns="http://www.w3.org/2000/svg" xmlns:sodipodi="http://sodipodi.sourceforge.net/DTD/sodipodi-0.dtd" xmlns:inkscape="http://www.inkscape.org/namespaces/inkscape" version="1.1" x="0px" y="0px" viewBox="0 0 100 100"><g transform="translate(0,-952.36218)"><path style="text-indent:0;text-transform:none;direction:ltr;block-progression:tb;baseline-shift:baseline;color:#000000;enable-background:accumulate;" d="m 29.593947,963.38412 c -1.144567,0.16131 -2.154911,1.0435 -2.46877,2.15564 l -5.125041,17.83873 c -4.757824,-1e-5 -9.579461,0 -14.3126145,0 C 6.2236674,983.53188 4.9921265,984.90622 5,986.37765 l 0,51.98535 c 1.341e-4,1.5703 1.4292434,2.999 3.0000239,2.9992 l 64.0005111,0 c 1.570781,-2e-4 2.999891,-1.4289 3.000025,-2.9992 l 0,-1.7495 2.187516,0.6249 c 1.521684,0.4348 3.301599,-0.5671 3.71878,-2.0933 l 14.000112,-50.98558 c 0.414041,-1.5213 -0.600787,-3.28181 -2.125017,-3.68646 L 30.781456,963.47784 c -0.38431,-0.1099 -0.790713,-0.14196 -1.187509,-0.0937 z m 2.468769,6.65437 56.25045,15.40192 -12.40635,45.17479 -0.906256,-0.2499 0,-43.98765 c -1.55e-4,-1.57031 -1.429258,-2.999 -3.000025,-2.99916 l -43.750349,0 z m -21.062668,19.33831 58.000463,0 0,36.0836 -10.750086,-12.0903 c -0.597665,-0.6707 -1.509135,-1.0494 -2.406269,-0.9997 -0.411683,0.021 -0.81876,0.1282 -1.187509,0.3124 l -19.218904,9.591 -7.218807,-7.9353 c -0.603602,-0.6594 -1.513993,-1.0258 -2.40627,-0.9684 -0.40115,0.025 -0.796973,0.1322 -1.156259,0.3124 l -13.656359,6.8106 z m 27.000216,5.99832 c -4.935089,0 -9.000072,4.06383 -9.000072,8.99748 0,4.9336 4.064995,8.9975 9.000072,8.9975 4.935071,0 9.000072,-4.0639 9.000072,-8.9975 0,-4.93365 -4.064989,-8.99748 -9.000072,-8.99748 z m 0,5.99828 c 1.692377,0 3.000023,1.3073 3.000023,2.9992 0,1.6919 -1.307634,2.9992 -3.000023,2.9992 -1.692405,0 -3.000025,-1.3073 -3.000025,-2.9992 0,-1.6919 1.307632,-2.9992 3.000025,-2.9992 z m 17.281388,17.6826 13.718859,15.4331 0,0.8748 -21.656422,0 -7.718813,-8.4976 z m -29.968989,0.9997 13.90636,15.3082 -28.218975,0 0,-8.154 z" fill="#000000" fill-opacity="1" stroke="none" marker="none" visibility="visible" display="inline" overflow="visible"></path></g></svg>