<svg height='100px' width='100px'  fill="#000000" xmlns:dc="http://purl.org/dc/elements/1.1/" xmlns:cc="http://creativecommons.org/ns#" xmlns:rdf="http://www.w3.org/1999/02/22-rdf-syntax-ns#" xmlns:svg="http://www.w3.org/2000/svg" xmlns="http://www.w3.org/2000/svg" xmlns:sodipodi="http://sodipodi.sourceforge.net/DTD/sodipodi-0.dtd" xmlns:inkscape="http://www.inkscape.org/namespaces/inkscape" version="1.1" x="0px" y="0px" viewBox="0 0 100 100"><g transform="translate(0,-952.36218)"><g transform="translate(14.000001,964.85628)"><path d="M 14.244094,0 C 12.93307,0 11.65748,0.99212597 11.338582,2.3031496 L 3.047244,36.283464 C 1.2755905,37.665354 0.03543307,40.110236 0,41.988189 l 0,26.007873 c 0.3543307,3.897638 3.5078739,6.944882 7.0157478,7.015748 l 57.9685022,0 c 3.897638,-0.35433 6.944882,-3.543307 7.015748,-7.015748 l 0,-26.007873 c -0.283465,-2.374016 -1.204725,-4.110237 -2.76378,-5.456693 L 61.086612,2.3385827 C 60.767715,1.027559 59.492124,0 58.145668,0 z m 2.374016,6.023622 39.188975,0 6.909449,28.948819 -1.700788,0 C 58.889762,26.929134 56.338581,20.374016 53.681101,12.11811 53.291337,10.913386 52.086613,10.027559 50.846455,10.027559 l -29.905511,0 c -1.27559,0 -2.515748,0.885827 -2.870078,2.125984 -2.976378,8.007874 -4.677166,14.952756 -7.086614,22.818898 l -1.4173232,0 z m 6.519685,9.992126 25.476377,0 0.956693,2.940945 -27.35433,0 z m -2.76378,8.929134 31.110235,0 0.637796,2.019685 -32.385826,0 z m -2.515748,8.007874 36.177164,0 0.637796,2.019685 -37.417322,0 z m -10.8425192,8.007874 57.9685022,0 c 0.566929,0.212598 0.708661,0.531496 1.027559,1.027559 l 0,26.007873 c -0.212598,0.566929 -0.531496,0.708662 -1.027559,0.992126 l -57.9685022,0 C 6.4488187,68.811023 6.3070864,68.492125 5.9881888,67.996062 l 0,-26.007873 c 0.2125984,-0.56693 0.531496,-0.708662 1.027559,-1.027559 z m 38.1259832,6.838582 c -1.771654,0.177165 -3.082677,2.196851 -2.551181,3.897638 l 1.062992,4.287401 -15.307086,0 1.062992,-4.287401 c 0.46063,-1.84252 -1.204724,-3.862205 -3.082677,-3.755906 -1.275591,0.1063 -2.444882,1.062993 -2.728347,2.338583 l -2.019684,8.007874 c -0.425197,1.73622 1.098425,3.720472 2.905511,3.720472 l 23.031496,0 c 1.807086,0 3.330708,-1.984252 2.905511,-3.720472 l -2.019685,-8.007874 c -0.248031,-1.488189 -1.771653,-2.65748 -3.259842,-2.480315 z" style="" fill="#000000" fill-opacity="1" fill-rule="nonzero" stroke="none"></path></g></g></svg>