<svg height='100px' width='100px'  fill="#000000" xmlns:x="http://ns.adobe.com/Extensibility/1.0/" xmlns:i="http://ns.adobe.com/AdobeIllustrator/10.0/" xmlns:graph="http://ns.adobe.com/Graphs/1.0/" xmlns="http://www.w3.org/2000/svg" xmlns:xlink="http://www.w3.org/1999/xlink" version="1.0" x="0px" y="0px" viewBox="0 0 56.322 49.282" enable-background="new 0 0 56.322 49.282" xml:space="preserve"><g><g i:extraneous="self"><g><path d="M28.96,0h5.44c1.04,0,1.92,0.88,1.92,1.92v4.4h20.001V9.2H36.321v4.24c0,1.12-0.88,1.92-1.92,1.92h-5.44     c-1.04,0-1.92-0.8-1.92-1.92V9.2H0V6.32h27.041v-4.4C27.041,0.88,27.92,0,28.96,0z M18.561,16.96c1.04,0,1.92,0.88,1.92,1.92     v4.32h35.841v2.88H20.48v4.32c0,1.04-0.88,1.92-1.92,1.92h-5.44c-1.12,0-1.92-0.88-1.92-1.92v-4.32H0v-2.88h11.2v-4.32     c0-1.04,0.8-1.92,1.92-1.92H18.561z M38.401,33.92h5.44c1.04,0,1.92,0.881,1.92,1.92v4.24h10.561v2.881H45.761v4.4     c0,1.039-0.88,1.92-1.92,1.92h-5.44c-1.04,0-1.92-0.881-1.92-1.92v-4.4H0v-2.881h36.481v-4.24     C36.481,34.801,37.361,33.92,38.401,33.92z"></path></g></g></g></svg>