<svg height='100px' width='100px'  fill="#000000" xmlns="http://www.w3.org/2000/svg" xmlns:xlink="http://www.w3.org/1999/xlink" version="1.1" x="0px" y="0px" viewBox="0 0 55 65" enable-background="new 0 0 55 65" xml:space="preserve"><path d="M55,22C55,22,55,22,55,22c0-0.2-0.1-0.4-0.2-0.6c0,0,0-0.1-0.1-0.1c-0.1-0.2-0.2-0.4-0.4-0.5l-20-20  c-0.2-0.2-0.3-0.3-0.5-0.4c0,0-0.1-0.1-0.1-0.1C33.4,0.2,33.2,0.1,33,0c0,0,0,0,0,0c-0.2,0-0.3,0-0.5,0h-25C3.4,0,0,3.4,0,7.5v50  C0,61.6,3.4,65,7.5,65h40c4.1,0,7.5-3.4,7.5-7.5v-35C55,22.3,55,22.2,55,22z M46.5,20h-9c-1.4,0-2.5-1.1-2.5-2.5v-9l5.7,5.7L46.5,20  z M24,51v-7h7v7H24z M14,51v-7h7v7H14z M41,41h-7v-7h7V41z M31,41h-7v-7h7V41z M14,34h7v7h-7V34z M24,31v-8h7v8H24z M14,23h7v8h-7  V23z M34,44h7v7h-7V44z M41,31h-7v-6.9c1,0.6,2.2,0.9,3.5,0.9H41V31z M47.5,60h-40C6.1,60,5,58.9,5,57.5v-50C5,6.1,6.1,5,7.5,5H30v6  H12.5c-0.8,0-1.5,0.7-1.5,1.5v40c0,0.8,0.7,1.5,1.5,1.5h30c0.8,0,1.5-0.7,1.5-1.5V25h6v32.5C50,58.9,48.9,60,47.5,60z"></path></svg>