<svg height='100px' width='100px'  fill="#000000" xmlns="http://www.w3.org/2000/svg" xmlns:xlink="http://www.w3.org/1999/xlink" version="1.1" x="0px" y="0px" viewBox="0 0 512 512" style="enable-background:new 0 0 512 512;" xml:space="preserve"><g><g><path d="M447.187,402.811l-6.251-13.987l-13.707-4.836l33.625-95.301l13.979,4.933l13.81-6.179l0.05,0.112    c1.57,3.51,1.732,7.489,0.453,11.116L455.52,393.97c-1.369,3.879-4.27,7.025-8.025,8.703L447.187,402.811z"></path><path d="M283.93,473.004c-5.747,0-11.227-3.32-13.712-8.905L167.784,233.914c-3.368-7.566,0.035-16.431,7.601-19.801    l221.425-98.633c3.648-1.627,7.794-1.73,11.519-0.286c3.725,1.441,6.721,4.31,8.324,7.968l72.038,164.384    c3.277,7.479-0.029,16.204-7.439,19.634l-50.677,23.452l24.111,52.194c1.69,3.657,1.837,7.841,0.408,11.608    s-4.313,6.802-8.003,8.42l-157.144,68.884C287.985,472.597,285.941,473.004,283.93,473.004z M201.289,235.416l90.273,202.857    l129.472-56.754l-23.982-51.915c-3.473-7.517-0.197-16.426,7.317-19.903l50.943-23.575l-60.082-137.101L201.289,235.416z"></path><path d="M254,407H143c-8.284,0-15-6.716-15-15V149c0-8.284,6.716-15,15-15h217v30H158v213h96V407z"></path><g><path d="M136.757,336.7l-106-48.52c-3.633-1.663-6.453-4.707-7.833-8.457s-1.208-7.896,0.481-11.519L126.195,47.663     c3.491-7.49,12.384-10.745,19.887-7.28l205.629,95l-12.582,27.234l-192.058-88.73L56.976,267.189l92.267,42.233L136.757,336.7z"></path></g><rect x="241.548" y="222.641" transform="matrix(0.9135 -0.4069 0.4069 0.9135 -69.2192 149.7739)" width="152.008" height="30"></rect><rect x="265.063" y="277.989" transform="matrix(0.9135 -0.4069 0.4069 0.9135 -89.7054 164.1315)" width="152.008" height="30"></rect></g></g></svg>