<svg height='100px' width='100px'  fill="#000000" xmlns="http://www.w3.org/2000/svg" xmlns:xlink="http://www.w3.org/1999/xlink" version="1.1" x="0px" y="0px" viewBox="0 0 24 24" style="enable-background:new 0 0 24 24;" xml:space="preserve"><style type="text/css">
	.st0{fill:#000000;}
</style><g><path d="M14,3h-1V2H5v1H4C2.8954468,3,2,3.8954468,2,5v14c0,1.1045532,0.8954468,2,2,2h10c1.1045532,0,2-0.8954468,2-2V5   C16,3.8954468,15.1045532,3,14,3z M6,3h6v1H6V3z M15,19c0,0.5513916-0.4486084,1-1,1H4c-0.5513916,0-1-0.4486084-1-1V5   c0-0.5513916,0.4486084-1,1-1h1v1h8V4h1c0.5513916,0,1,0.4486084,1,1V19z M5,7h8v1H5V7z M5,10h8v1H5V10z M5,13h8v1H5V13z M5,16h4v1   H5V16z M21,3h-2c-0.5522461,0-1,0.4476929-1,1v3v12l2,2l2-2V7V4C22,3.4476929,21.5523071,3,21,3z M19,4h2v2h-2V4z M21,18.5857544   l-1,1l-1-1V7h2V18.5857544z"></path></g></svg>