<svg height='100px' width='100px'  fill="#000000" xmlns="http://www.w3.org/2000/svg" xmlns:xlink="http://www.w3.org/1999/xlink" version="1.1" x="0px" y="0px" viewBox="0 0 48 48" enable-background="new 0 0 48 48" xml:space="preserve"><path d="M43.29,15.67c0-0.05,0-0.11,0-0.16c0-5.77-4.7-10.47-10.47-10.47c-1.26,0-2.51,0.23-3.69,0.67  c-2.22-2.09-5.15-3.27-8.24-3.27c-5.01,0-9.43,3.09-11.2,7.68c-5.18,0.63-9.2,5.05-9.2,10.39c0,5.77,4.7,10.47,10.47,10.47  c0.98,0,1.95-0.14,2.89-0.41c2.75,2.76,6.48,4.32,10.42,4.32c2.57,0,5.06-0.66,7.27-1.93c1.64,1.01,3.54,1.55,5.48,1.55  c5.77,0,10.47-4.7,10.47-10.47C47.5,20.75,45.91,17.64,43.29,15.67z M37.03,30.68c-1.55,0-3-0.52-4.2-1.5  c-0.67-0.55-1.62-0.58-2.33-0.09c-1.84,1.29-3.99,1.97-6.23,1.97c-3.25,0-6.31-1.44-8.38-3.95c-0.37-0.45-0.92-0.7-1.48-0.7  c-0.26,0-0.53,0.05-0.78,0.17c-0.85,0.37-1.75,0.56-2.67,0.56c-3.65,0-6.62-2.97-6.62-6.62c0-3.65,2.97-6.62,6.58-6.62  c0.05,0,0.16,0.01,0.2,0.01c0.88,0,1.65-0.6,1.86-1.45c0.92-3.63,4.17-6.16,7.91-6.16c2.44,0,4.74,1.08,6.3,2.97  c0.59,0.71,1.61,0.91,2.42,0.46c0.98-0.54,2.09-0.83,3.21-0.83c3.65,0,6.62,2.97,6.62,6.62c0,0.26-0.02,0.54-0.07,0.89  c-0.1,0.77,0.27,1.53,0.95,1.92c2.05,1.18,3.33,3.38,3.33,5.74C43.65,27.71,40.68,30.68,37.03,30.68z M15.25,35.58  c-1.86,0-3.37,1.5-3.37,3.36c0,1.86,1.51,3.36,3.37,3.36c1.86,0,3.36-1.5,3.36-3.36C18.61,37.08,17.11,35.58,15.25,35.58z   M7.18,40.71c-1.34,0-2.42,1.09-2.42,2.42c0,1.34,1.09,2.42,2.42,2.42c1.34,0,2.42-1.09,2.42-2.42C9.6,41.8,8.52,40.71,7.18,40.71z"></path></svg>