<svg height='100px' width='100px'  fill="#000000" xmlns="http://www.w3.org/2000/svg" xmlns:xlink="http://www.w3.org/1999/xlink" version="1.1" x="0px" y="0px" viewBox="0 0 70 70" enable-background="new 0 0 70 70" xml:space="preserve"><path d="M56.879,1.082h-43.76c-2.6,0-4.715,2.116-4.715,4.716v58.405c0,2.6,2.115,4.715,4.715,4.715h43.76  c2.601,0,4.717-2.115,4.717-4.715V5.798C61.596,3.198,59.479,1.082,56.879,1.082z M25.516,4.082h18.969v5.734  c0,0.946-0.771,1.716-1.717,1.716H27.229c-0.945,0-1.714-0.77-1.714-1.716V4.082z M58.596,64.203c0,0.945-0.771,1.715-1.717,1.715  h-43.76c-0.945,0-1.715-0.77-1.715-1.715V5.798c0-0.946,0.77-1.716,1.715-1.716h9.396v5.734c0,2.601,2.114,4.716,4.714,4.716h15.538  c2.601,0,4.717-2.115,4.717-4.716V4.082h9.395c0.946,0,1.717,0.77,1.717,1.716V64.203z"></path><path d="M29.094,23.817c-0.651-0.51-1.595-0.396-2.106,0.256l-4.136,5.276l-2.108-2.107c-0.586-0.585-1.535-0.586-2.121,0  s-0.586,1.536,0,2.122l3.305,3.304c0.011,0.01,0.024,0.013,0.035,0.022c0.033,0.032,0.063,0.067,0.101,0.097  c0.075,0.06,0.162,0.091,0.245,0.133c0.054,0.027,0.101,0.064,0.156,0.085c0.17,0.063,0.346,0.102,0.522,0.102h0.001l0,0  c0.001,0,0.001,0,0.002,0c0.174,0,0.346-0.039,0.51-0.1c0.026-0.01,0.052-0.016,0.078-0.026c0.156-0.067,0.3-0.164,0.429-0.285  c0.014-0.012,0.03-0.016,0.043-0.028s0.017-0.03,0.029-0.044c0.029-0.031,0.063-0.057,0.09-0.091l5.181-6.608  C29.859,25.271,29.746,24.329,29.094,23.817z"></path><path d="M29.094,36.856c-0.651-0.51-1.595-0.396-2.106,0.255l-4.137,5.277l-2.107-2.107c-0.586-0.586-1.535-0.586-2.121,0  s-0.586,1.535,0,2.121l3.305,3.305c0.01,0.01,0.023,0.013,0.033,0.021c0.034,0.033,0.064,0.068,0.103,0.099  c0.076,0.06,0.163,0.091,0.246,0.134c0.053,0.027,0.1,0.063,0.155,0.084c0.17,0.063,0.346,0.102,0.522,0.102h0.001l0,0  c0.001,0,0.001,0,0.002,0c0.174-0.001,0.346-0.04,0.511-0.1c0.025-0.01,0.051-0.016,0.076-0.026  c0.158-0.067,0.302-0.165,0.432-0.287c0.013-0.011,0.028-0.015,0.04-0.026c0.013-0.013,0.016-0.029,0.027-0.042  c0.03-0.032,0.065-0.058,0.093-0.093l5.181-6.609C29.859,38.311,29.745,37.367,29.094,36.856z"></path><path d="M29.094,49.896c-0.651-0.51-1.595-0.396-2.106,0.255l-4.137,5.277l-2.107-2.107c-0.586-0.586-1.535-0.586-2.121,0  s-0.586,1.535,0,2.121l3.305,3.305c0.01,0.01,0.023,0.013,0.033,0.021c0.034,0.033,0.064,0.068,0.103,0.099  c0.076,0.06,0.163,0.091,0.246,0.134c0.053,0.027,0.1,0.063,0.155,0.084c0.17,0.063,0.346,0.102,0.522,0.102h0.001l0,0  c0.001,0,0.001,0,0.002,0c0.174-0.001,0.346-0.04,0.511-0.1c0.025-0.01,0.051-0.016,0.076-0.026  c0.158-0.067,0.302-0.165,0.432-0.287c0.013-0.011,0.028-0.015,0.04-0.026c0.013-0.013,0.016-0.029,0.027-0.042  c0.03-0.032,0.065-0.058,0.093-0.093l5.181-6.609C29.859,51.35,29.745,50.406,29.094,49.896z"></path><path d="M50.316,26.803H34.239c-0.829,0-1.5,0.672-1.5,1.5c0,0.829,0.671,1.5,1.5,1.5h16.077c0.828,0,1.5-0.671,1.5-1.5  C51.816,27.475,51.145,26.803,50.316,26.803z"></path><path d="M50.316,39.842H34.239c-0.829,0-1.5,0.672-1.5,1.5s0.671,1.5,1.5,1.5h16.077c0.828,0,1.5-0.672,1.5-1.5  S51.145,39.842,50.316,39.842z"></path><path d="M50.316,52.881H34.239c-0.829,0-1.5,0.672-1.5,1.5s0.671,1.5,1.5,1.5h16.077c0.828,0,1.5-0.672,1.5-1.5  S51.145,52.881,50.316,52.881z"></path></svg>