<svg height='100px' width='100px'  fill="#000000" xmlns="http://www.w3.org/2000/svg" xmlns:xlink="http://www.w3.org/1999/xlink" xml:space="preserve" version="1.1" style="shape-rendering:geometricPrecision;text-rendering:geometricPrecision;image-rendering:optimizeQuality;" viewBox="0 0 333 333" x="0px" y="0px" fill-rule="evenodd" clip-rule="evenodd"><defs><style type="text/css">
   
    .fil0 {fill:#000000}
   
  </style></defs><g><path class="fil0" d="M76 54l36 -5c7,30 21,33 41,10l29 22c-16,26 -9,38 22,36l0 0c-4,8 -7,16 -8,25l-38 22c2,-7 3,-14 2,-22 -5,-28 -31,-48 -59,-43 -28,4 -47,30 -43,58 3,21 19,38 39,42l-42 25c-2,1 -4,2 -6,4l-14 -10c17,-26 9,-38 -21,-36l-6 -36c30,-7 34,-21 10,-41l22 -29c26,16 39,9 36,-22zm162 140l-149 87c-27,15 -51,-25 -24,-41l150 -86c-1,-20 9,-40 28,-51 20,-12 43,-10 60,2l-40 23 3 23 19 15 40 -24c2,21 -9,42 -28,54 -19,10 -42,9 -59,-2zm-134 -79c19,-3 37,10 40,29 2,19 -11,37 -30,40 -19,3 -37,-10 -40,-29 -3,-20 10,-38 30,-40z"></path></g></svg>