<svg height='100px' width='100px'  fill="#000000" xmlns="http://www.w3.org/2000/svg" viewBox="0 0 42 48" x="0px" y="0px"><title>48_px - Regular - 70 Basic Icons</title><g><path d="M40,8H30V3a3,3,0,0,0-3-3H15a3,3,0,0,0-3,3V8H2a2,2,0,0,0,0,4H3V38.5C3,43.74,6.87,48,11.63,48H31.37C35.58,48,39,44.19,39,39.5V12h1A2,2,0,0,0,40,8ZM16,4H26V7H16V4ZM35,39.5c0,2.17-1.46,4.5-3.63,4.5H11.63C8.86,44,7,41.16,7,38.5V12H35V39.5Z"></path><path d="M13,39a2,2,0,0,0,2-2V19a2,2,0,0,0-4,0V37A2,2,0,0,0,13,39Z"></path><path d="M21,39a2,2,0,0,0,2-2V19a2,2,0,0,0-4,0V37A2,2,0,0,0,21,39Z"></path><path d="M29,39a2,2,0,0,0,2-2V19a2,2,0,0,0-4,0V37A2,2,0,0,0,29,39Z"></path></g></svg>